<svg t="1699237109984" class="icon" viewBox="0 0 1024 1024" version="1.1" fill="currentColor"
    xmlns="http://www.w3.org/2000/svg" p-id="9646" width="24" height="24">
    <path
        d="M959.747466 575.84848V237.37754L914.31942 191.949493 703.814809 401.814273V198.987641L417.170232 0 383.898987 57.584848v88.296767l-255.932658 255.932658V703.814809H63.983164v127.966329h127.966329V429.327033l191.949494-191.949493v600.162082a95.974747 95.974747 0 1 0 63.983164 0V101.733231l191.949493 132.445151V831.781138h127.966329v-127.966329h-63.983164V493.310198l191.949493-191.949494V703.814809h127.966329V575.84848z m-543.856897 383.898986a31.991582 31.991582 0 1 1 31.991582-31.991582 31.991582 31.991582 0 0 1-31.991582 31.991582z"
        fill="currentColor" p-id="9647"></path>
</svg>