<svg t="1699236884882" class="icon" viewBox="0 0 1024 1024" version="1.1" fill="currentColor"
    xmlns="http://www.w3.org/2000/svg" p-id="8578" width="24" height="24">
    <path
        d="M942.057143 719.085714c-48.571429-28.114286-107.771429-20.571429-147.657143 14.628572l-60.571429-35.085715V525.257143c0-17.942857-9.6-34.628571-25.142857-43.542857l-155.428571-89.485715v-76.685714c50.514286-17.142857 86.857143-64.914286 86.857143-121.257143 0-70.742857-57.257143-128-128-128s-128 57.257143-128 128c0 56.342857 36.342857 104.114286 86.857143 121.257143v76.685714l-155.428572 89.485715c-15.542857 8.914286-25.142857 25.6-25.142857 43.542857v173.257143l-60.571429 35.085714c-39.885714-35.2-99.2-42.742857-147.657142-14.628571-61.142857 35.428571-81.942857 113.6-46.857143 174.742857 35.2 61.142857 113.028571 82.171429 173.942857 46.857143 48.571429-28.114286 71.657143-83.428571 61.257143-135.771429l55.657143-32.342857 160.685714 92.571428c7.771429 4.457143 16.457143 6.742857 25.142857 6.742858s17.371429-2.285714 25.142857-6.742858L697.714286 772.571429l55.657143 32.342857c-10.4 52.228571 12.8 107.657143 61.257142 135.771428 60.914286 35.314286 138.857143 14.4 173.942858-46.857143 35.2-61.257143 14.4-139.428571-46.514286-174.742857z m-769.142857 158.171429a54.4 54.4 0 0 1-74.514286-20.114286c-15.085714-26.171429-6.171429-59.771429 20-74.857143a54.4 54.4 0 0 1 74.514286 20.114286c15.085714 26.171429 6.171429 59.771429-20 74.857143zM523.428571 456.914286zM457.142857 194.285714a54.868571 54.868571 0 0 1 109.714286 0 54.868571 54.868571 0 0 1-109.714286 0z m194.285714 509.942857l-139.428571 80.342858-139.428571-80.342858V543.771429l139.428571-80.342858 139.428571 80.342858v160.457142z m274.171429 153.028572c-15.085714 26.171429-48.457143 35.2-74.514286 20.114286-26.057143-15.085714-35.085714-48.685714-20-74.857143s48.457143-35.2 74.514286-20.114286c26.171429 15.085714 35.085714 48.571429 20 74.857143z"
        p-id="8579"></path>
</svg>